<svg width="24" height="24" viewBox="0 0 24 24" fill="none" xmlns="http://www.w3.org/2000/svg">
<path d="M6.49996 7C7.96131 5.53865 9.5935 4.41899 10.6975 3.74088C11.5021 3.24665 12.4978 3.24665 13.3024 3.74088C14.4064 4.41899 16.0386 5.53865 17.5 7C20.6683 10.1684 20.5 12 20.5 15C20.5 16.4098 20.3895 17.5988 20.2725 18.4632C20.1493 19.3726 19.3561 20 18.4384 20H17C15.8954 20 15 19.1046 15 18V16C15 15.2043 14.6839 14.4413 14.1213 13.8787C13.5587 13.3161 12.7956 13 12 13C11.2043 13 10.4413 13.3161 9.87864 13.8787C9.31603 14.4413 8.99996 15.2043 8.99996 16V18C8.99996 19.1046 8.10453 20 6.99996 20H5.56152C4.64378 20 3.85061 19.3726 3.72745 18.4631C3.61039 17.5988 3.49997 16.4098 3.49997 15C3.49997 12 3.33157 10.1684 6.49996 7Z" stroke="#001A72" stroke-width="1.5" stroke-linecap="round" stroke-linejoin="round"/>
</svg>
